<?xml version="1.0" standalone="no"?><!DOCTYPE svg PUBLIC "-//W3C//DTD SVG 1.1//EN" "http://www.w3.org/Graphics/SVG/1.1/DTD/svg11.dtd"><svg t="1738831585781" class="icon" viewBox="0 0 1024 1024" version="1.1" xmlns="http://www.w3.org/2000/svg" p-id="4698" xmlns:xlink="http://www.w3.org/1999/xlink" width="200" height="200"><path d="M686.464 336.213333c-170.410667 0-305.066667 127.274667-305.066667 284.032 0 26.197333 4.096 51.285333 11.093334 75.306667-11.093333 0.853333-22.186667 1.322667-33.493334 1.322667-44.8 0-80.810667-9.130667-125.653333-17.92l-125.482667 62.848 35.84-107.946667C53.845333 571.050667 0.085333 490.112 0.085333 391.552c0-170.752 161.621333-305.194667 358.912-305.194667 176.512 0 331.093333 107.434667 362.112 252.032a316.16 316.16 0 0 0-34.645333-2.133333zM493.525333 238.933333c-26.88 0-53.76 17.749333-53.76 44.8 0 26.88 26.965333 44.885333 53.76 44.885334 27.136 0 44.970667-18.005333 44.970667-44.885334 0-27.008-17.834667-44.8-44.970667-44.8zM242.389333 328.618667c26.922667 0 44.8-18.005333 44.8-44.885334 0-27.050667-17.877333-44.8-44.8-44.8s-54.058667 17.792-54.058666 44.8c0 26.88 27.136 44.885333 54.058666 44.885334z m771.712 287.317333c0 80.938667-53.76 152.618667-125.781333 206.762667l27.008 89.728-98.432-54.016c-35.84 9.002667-71.936 17.92-107.690667 17.92-170.709333 0-305.194667-116.48-305.194666-260.394667 0-143.402667 134.4-260.394667 305.194666-260.394667 161.28 0 304.896 116.906667 304.896 260.394667z m-403.882666-44.928c27.264 0 44.928-17.749333 44.928-35.84 0-17.92-17.664-35.882667-44.928-35.882667-17.792 0-35.84 18.005333-35.84 35.84 0 18.133333 18.048 35.882667 35.84 35.882667z m197.418666 0c27.008 0 44.928-17.749333 44.928-35.84 0-17.92-17.92-35.882667-44.928-35.882667-17.749333 0-35.669333 18.005333-35.669333 35.84 0 18.133333 18.005333 35.882667 35.669333 35.882667z" fill="#66BB33" p-id="4699"></path></svg>